<?xml version="1.0" standalone="no"?>
<!DOCTYPE svg PUBLIC "-//W3C//DTD SVG 20010904//EN"
 "http://www.w3.org/TR/2001/REC-SVG-20010904/DTD/svg10.dtd">
<svg version="1.0" xmlns="http://www.w3.org/2000/svg"
 width="256.000000pt" height="256.000000pt" viewBox="0 0 256.000000 256.000000"
 preserveAspectRatio="xMidYMid meet">
<metadata>
Created by potrace 1.11, written by Peter Selinger 2001-2013
</metadata>
<g transform="translate(0.000000,256.000000) scale(0.100000,-0.100000)"
fill="#000000" stroke="none">
<path d="M1253 2449 c-76 -4 -149 -10 -163 -13 -14 -4 -54 -8 -90 -10 -151 -7
-376 -132 -542 -299 -81 -82 -178 -218 -178 -249 0 -10 0 -20 0 -23 0 -3 -11
-27 -25 -55 -117 -232 -137 -565 -49 -830 67 -200 221 -417 379 -535 22 -16
42 -32 45 -35 7 -8 102 -64 123 -72 10 -4 16 -12 13 -17 -3 -5 3 -7 13 -4 11
3 27 -3 38 -14 11 -11 25 -17 33 -15 8 3 10 0 5 -8 -5 -9 -2 -10 14 -5 13 4
21 2 21 -5 0 -6 4 -9 9 -5 6 3 15 -4 21 -15 6 -11 16 -20 22 -20 6 0 5 7 -3
18 -10 12 -8 12 10 -3 13 -11 25 -19 27 -18 2 1 13 -1 24 -4 23 -6 27 -20 5
-20 -8 0 -15 5 -15 11 0 6 -5 4 -10 -4 -5 -8 -10 -10 -10 -5 0 6 -11 11 -24
11 -14 0 -22 -4 -20 -8 3 -5 10 -5 16 -2 8 5 9 1 4 -11 -6 -16 -4 -16 10 -4
21 17 17 17 37 0 10 -7 17 -10 17 -5 0 5 5 2 10 -6 6 -10 10 -11 10 -2 0 6 5
12 11 12 5 0 8 -4 5 -9 -3 -5 2 -15 12 -22 15 -13 16 -12 3 4 -15 19 -2 24 17
5 9 -9 15 -9 25 1 10 10 9 12 -3 10 -18 -3 -70 21 -70 33 0 5 11 1 25 -8 25
-17 50 -11 39 9 -4 7 -3 8 2 4 5 -5 10 -13 10 -18 3 -20 5 -21 17 -10 10 8 14
7 14 -4 0 -8 -5 -11 -10 -8 -6 3 -7 1 -3 -5 4 -7 3 -12 -1 -12 -5 0 -9 -10
-10 -22 -2 -18 3 -15 19 15 24 41 30 44 47 23 8 -10 9 -16 1 -21 -5 -3 -10 2
-10 12 0 15 -2 16 -10 3 -13 -20 -12 -29 3 -26 21 3 38 17 32 27 -4 5 4 7 17
5 13 -2 29 1 36 7 9 7 11 6 6 -7 -3 -9 -13 -15 -22 -14 -8 2 -17 -4 -19 -12
-4 -13 -3 -13 6 0 8 11 11 12 11 2 0 -7 4 -11 9 -7 5 3 12 1 16 -5 3 -5 11
-10 18 -10 6 0 2 6 -9 14 -18 14 -18 15 -2 21 10 4 15 12 11 19 -4 6 1 5 10
-3 18 -14 23 -26 8 -16 -5 3 -13 0 -17 -6 -4 -8 -3 -9 4 -5 7 4 13 2 13 -3 3
-26 4 -30 11 -36 4 -4 5 4 2 19 -4 26 11 33 29 11 5 -6 7 -4 4 5 -2 8 -10 14
-16 12 -7 -1 -10 2 -7 7 4 5 0 12 -6 14 -9 4 -10 6 -1 6 6 1 15 -3 18 -9 3 -5
11 -10 16 -10 6 0 8 4 4 9 -3 6 4 8 16 6 23 -5 41 -24 33 -36 -2 -4 4 -13 14
-20 15 -13 16 -12 4 3 -9 11 -10 18 -2 23 14 9 32 -4 24 -18 -3 -7 2 -3 10 7
9 11 16 23 16 27 0 8 16 6 42 -6 10 -4 15 -12 11 -18 -3 -6 -1 -7 5 -3 9 5 9
13 2 27 -6 10 -13 19 -16 19 -3 0 -2 -6 2 -12 6 -10 4 -10 -7 -2 -8 6 -22 10
-31 9 -10 -2 -18 1 -18 6 0 5 11 7 25 5 13 -3 27 0 30 5 4 5 12 9 18 9 8 0 8
-3 -1 -9 -11 -6 -10 -10 4 -15 9 -4 22 -1 28 5 8 9 8 10 0 6 -6 -3 -11 0 -11
7 0 8 8 11 19 8 10 -2 15 -9 11 -16 -3 -6 -3 -8 2 -4 4 4 14 0 22 -10 12 -16
13 -16 7 2 -6 16 -5 17 17 7 20 -10 21 -10 9 1 -17 15 -23 47 -9 49 13 2 29 6
32 8 1 2 12 4 25 7 32 6 27 -9 -9 -30 -18 -11 -29 -14 -25 -8 3 6 1 14 -5 17
-7 5 -10 0 -7 -11 4 -25 27 -24 55 2 16 15 21 27 16 39 -4 12 -3 16 5 12 6 -4
25 6 42 22 18 16 44 35 58 42 15 8 30 18 34 24 4 5 8 6 8 2 0 -5 12 1 26 12
15 11 31 18 37 14 6 -3 7 -1 3 5 -3 6 3 16 15 22 55 30 167 140 244 240 112
147 203 378 220 560 3 36 11 80 17 99 20 65 -12 272 -65 413 -114 301 -356
551 -647 667 -84 33 -245 72 -284 68 -14 -1 -87 -5 -163 -8z m346 -2238 c7 -5
9 -11 5 -14 -5 -3 -15 1 -22 9 -14 16 -5 18 17 5z m-149 -51 c0 -4 -10 -7 -23
-6 -13 0 -24 6 -24 12 0 6 11 9 24 6 13 -2 23 -8 23 -12z"/>
<path d="M697 333 c-10 -9 -9 -23 1 -23 5 0 9 7 9 15 0 17 -1 18 -10 8z"/>
<path d="M1833 295 c0 -8 4 -12 9 -9 5 3 6 10 3 15 -9 13 -12 11 -12 -6z"/>
<path d="M767 279 c7 -7 15 -10 18 -7 3 3 -2 9 -12 12 -14 6 -15 5 -6 -5z"/>
<path d="M1770 286 c0 -2 7 -7 16 -10 8 -3 12 -2 9 4 -6 10 -25 14 -25 6z"/>
<path d="M1750 270 c0 -6 7 -10 15 -10 8 0 15 2 15 4 0 2 -7 6 -15 10 -8 3
-15 1 -15 -4z"/>
<path d="M735 260 c3 -5 8 -10 11 -10 2 0 4 5 4 10 0 6 -5 10 -11 10 -5 0 -7
-4 -4 -10z"/>
<path d="M807 264 c7 -3 9 -13 6 -22 -4 -14 -3 -14 5 -2 12 16 7 30 -11 29 -9
0 -9 -2 0 -5z"/>
<path d="M875 251 c6 -10 2 -12 -16 -7 -23 7 -23 6 -4 -5 11 -7 23 -17 28 -23
4 -6 6 -1 4 11 -2 12 -7 26 -12 30 -4 5 -5 2 0 -6z"/>
<path d="M685 240 c-3 -6 1 -7 9 -4 18 7 21 14 7 14 -6 0 -13 -4 -16 -10z"/>
<path d="M903 240 c2 -8 0 -23 -5 -32 -5 -11 -5 -18 0 -18 14 0 21 36 10 51
-8 11 -9 11 -5 -1z"/>
<path d="M1730 240 c0 -4 10 -7 23 -6 15 1 21 -4 19 -14 -2 -8 0 -11 4 -7 18
17 10 32 -17 33 -16 1 -29 -2 -29 -6z"/>
<path d="M834 215 c3 -23 12 -26 13 -5 1 11 -2 20 -7 20 -4 0 -7 -7 -6 -15z"/>
<path d="M1710 205 c0 -8 2 -15 4 -15 2 0 6 7 10 15 3 8 1 15 -4 15 -6 0 -10
-7 -10 -15z"/>
<path d="M1676 182 c-2 -4 -1 -14 4 -22 7 -11 9 -9 7 8 -1 24 -3 26 -11 14z"/>
<path d="M916 167 c3 -10 9 -15 12 -12 3 3 0 11 -7 18 -10 9 -11 8 -5 -6z"/>
<path d="M973 150 c1 -21 10 -18 13 5 1 8 -2 15 -6 15 -5 0 -8 -9 -7 -20z"/>
<path d="M1357 164 c-3 -5 1 -15 9 -22 16 -14 18 -5 5 17 -5 7 -11 9 -14 5z"/>
<path d="M1553 152 c-9 -15 -8 -19 2 -19 8 0 13 5 12 11 -1 6 4 10 11 8 8 -1
11 2 7 8 -9 15 -19 12 -32 -8z"/>
<path d="M1475 140 c3 -5 8 -10 11 -10 2 0 4 5 4 10 0 6 -5 10 -11 10 -5 0 -7
-4 -4 -10z"/>
<path d="M1075 129 c-4 -6 -5 -12 -2 -15 2 -3 7 2 10 11 7 17 1 20 -8 4z"/>
<path d="M1346 123 c-6 -14 -5 -15 5 -6 7 7 10 15 7 18 -3 3 -9 -2 -12 -12z"/>
<path d="M1673 115 c0 -8 4 -12 9 -9 5 3 6 10 3 15 -9 13 -12 11 -12 -6z"/>
</g>
</svg>
